<svg width="40" height="40" viewBox="0 0 40 40" fill="none" xmlns="http://www.w3.org/2000/svg">
<mask id="mask0_1_65" style="mask-type:alpha" maskUnits="userSpaceOnUse" x="0" y="0" width="40" height="40">
<rect width="40" height="40" fill="#D9D9D9"/>
</mask>
<g mask="url(#mask0_1_65)">
<path d="M17.6667 27.6667L29.4167 15.9167L27.0833 13.5833L17.6667 23L12.9167 18.25L10.5833 20.5833L17.6667 27.6667ZM20 36.6667C17.6944 36.6667 15.5278 36.2292 13.5 35.3542C11.4722 34.4792 9.70833 33.2917 8.20833 31.7917C6.70833 30.2917 5.52083 28.5278 4.64583 26.5C3.77083 24.4722 3.33333 22.3056 3.33333 20C3.33333 17.6944 3.77083 15.5278 4.64583 13.5C5.52083 11.4722 6.70833 9.70834 8.20833 8.20834C9.70833 6.70834 11.4722 5.52084 13.5 4.64584C15.5278 3.77084 17.6944 3.33334 20 3.33334C22.3055 3.33334 24.4722 3.77084 26.5 4.64584C28.5278 5.52084 30.2917 6.70834 31.7917 8.20834C33.2917 9.70834 34.4792 11.4722 35.3542 13.5C36.2292 15.5278 36.6667 17.6944 36.6667 20C36.6667 22.3056 36.2292 24.4722 35.3542 26.5C34.4792 28.5278 33.2917 30.2917 31.7917 31.7917C30.2917 33.2917 28.5278 34.4792 26.5 35.3542C24.4722 36.2292 22.3055 36.6667 20 36.6667ZM20 33.3333C23.7222 33.3333 26.875 32.0417 29.4583 29.4583C32.0417 26.875 33.3333 23.7222 33.3333 20C33.3333 16.2778 32.0417 13.125 29.4583 10.5417C26.875 7.95834 23.7222 6.66667 20 6.66667C16.2778 6.66667 13.125 7.95834 10.5417 10.5417C7.95833 13.125 6.66666 16.2778 6.66666 20C6.66666 23.7222 7.95833 26.875 10.5417 29.4583C13.125 32.0417 16.2778 33.3333 20 33.3333Z" fill="#7B57F5"/>
</g>
</svg>
